<?xml version="1.0" encoding="UTF-8" standalone="no"?>
<!-- Created with Inkscape (http://www.inkscape.org/) -->

<svg
   width="174.87781"
   height="145.25134"
   viewBox="0 0 17.487781 14.525135"
   version="1.1"
   id="svg1"
   xml:space="preserve"
   xmlns="http://www.w3.org/2000/svg"
   xmlns:svg="http://www.w3.org/2000/svg"><defs
     id="defs1" /><g
     id="layer2"
     style="display:inline"
     transform="translate(-2.445428,-4.2131945)"><path
       style="fill:#dc2626;fill-opacity:1;stroke:none;stroke-width:0.100157;stroke-dasharray:none;stroke-opacity:1"
       d="m 15.467961,7.4864931 -2.099223,2.3599689 4.050087,3.578462 a 0.30614348,0.30614348 155.93214 0 0 0.508842,-0.227273 l 0.03413,-4.8641081 a 0.51858676,0.51858676 49.775826 0 0 -0.436112,-0.515627 z"
       id="path2" /><path
       style="fill:#dc2626;fill-opacity:1;stroke:none;stroke-width:0.100157;stroke-dasharray:none;stroke-opacity:1"
       d="M 11.101576,11.269514 15.85317,6.1672175 a 0.10114652,0.10114652 66.482172 0 0 -0.07402,-0.1700789 l -5.06286,-2.343e-4 A 1.3019397,1.3019397 157.5444 0 0 9.7970096,6.3768506 L 7.2566834,8.9095499 8.0009615,8.9506137 A 1.5363371,1.5363371 22.463026 0 1 8.939707,9.3387453 Z"
       id="path3" /><path
       style="fill:#1e293b;fill-opacity:1;stroke:none;stroke-width:0.100157;stroke-dasharray:none;stroke-opacity:1"
       d="m 8.4375,16.89375 5.164163,-5.195502 a 0.61372118,0.61372118 178.42879 0 1 0.846183,-0.02321 l 2.525166,2.276136 a 0.43859335,0.43859335 88.811511 0 1 0.01326,0.639101 l -1.898424,1.859586 a 1.600884,1.600884 157.8653 0 1 -1.124106,0.457245 z"
       id="path4" /><path
       style="fill:#1e293b;fill-opacity:1;stroke:none;stroke-width:0.100157;stroke-dasharray:none;stroke-opacity:1"
       d="m 8.1085586,16.141798 3.2962004,-3.203783 a 0.34229762,0.34229762 89.416227 0 0 -0.0051,-0.495726 L 8.5100588,9.7459615 A 1.3735631,1.3735631 21.420791 0 0 7.5687513,9.3766731 l -2.8615602,0.0088 A 0.65092782,0.65092782 134.54924 0 0 4.0583182,10.044642 l 0.037155,2.93521 a 0.82652486,0.82652486 65.874329 0 0 0.2683444,0.599171 l 2.8145168,2.57667 a 0.67788926,0.67788926 179.14423 0 0 0.9302246,-0.01389 z"
       id="path5" /></g><g
     id="layer4"
     transform="translate(-2.445428,-4.2131945)"><path
       d="m 19.978326,14.022167 q -0.471263,0 -0.832181,-0.222987 -0.360919,-0.222988 -0.563217,-0.620688 -0.202298,-0.3977 -0.202298,-0.921836 0,-0.528734 0.202298,-0.926434 0.202298,-0.399998 0.563217,-0.620687 0.360918,-0.222988 0.832181,-0.222988 0.280459,0 0.521837,0.08506 0.243677,0.08276 0.434481,0.23908 0.193103,0.156321 0.317241,0.37701 0.124137,0.220689 0.170114,0.494251 h -0.519538 q -0.03678,-0.174712 -0.11954,-0.310343 -0.08276,-0.135632 -0.202298,-0.229885 -0.11954,-0.09425 -0.271264,-0.140229 -0.151724,-0.04828 -0.326436,-0.04828 -0.337929,0 -0.581607,0.163218 -0.243677,0.163218 -0.37701,0.45747 -0.131034,0.291953 -0.131034,0.682756 0,0.388505 0.131034,0.680458 0.133333,0.291953 0.37701,0.455171 0.243678,0.163217 0.581607,0.163217 0.174712,0 0.324137,-0.04598 0.151724,-0.04828 0.271264,-0.14023 0.11954,-0.09425 0.202298,-0.229884 0.08276,-0.135632 0.124137,-0.308045 h 0.51724 q -0.04368,0.271263 -0.170114,0.491952 -0.124138,0.220689 -0.317241,0.37701 -0.190804,0.156322 -0.434481,0.23908 -0.241378,0.08276 -0.521837,0.08276 z m 1.9861,-0.05517 v -3.425276 h 0.510343 v 2.977002 h 1.620684 v 0.448274 z m 2.604488,0 v -3.425276 h 2.303441 v 0.448275 h -1.793097 v 1.009192 h 1.659764 v 0.443676 h -1.659764 v 1.075859 h 1.793097 v 0.448274 z m 2.547018,0 1.243674,-3.425276 h 0.61609 l 1.234478,3.425276 h -0.554021 l -0.659768,-1.931028 q -0.08046,-0.245976 -0.174712,-0.537929 -0.09425,-0.291953 -0.225286,-0.724136 h 0.144827 q -0.131034,0.432183 -0.225287,0.724136 -0.09425,0.291953 -0.177011,0.537929 l -0.680457,1.931028 z m 0.689653,-0.889652 v -0.434481 h 1.717235 v 0.434481 z m 2.806787,0.889652 v -3.425276 h 1.303444 q 0.367815,0 0.634481,0.131034 0.268964,0.128736 0.413791,0.367815 0.144827,0.23908 0.144827,0.567814 0,0.326436 -0.154022,0.565516 -0.154023,0.239079 -0.429884,0.367815 -0.275861,0.128735 -0.643676,0.128735 h -0.974709 v -0.434481 h 0.988502 q 0.220689,0 0.379309,-0.07586 0.160919,-0.07586 0.245977,-0.216091 0.08506,-0.142529 0.08506,-0.335632 0,-0.193102 -0.08736,-0.331033 -0.08506,-0.140229 -0.245976,-0.216091 -0.158621,-0.07816 -0.37931,-0.07816 H 31.122714 V 13.967 Z m 1.974706,0 -0.811492,-1.542523 h 0.558619 l 0.827584,1.542523 z m 2.266558,0.05517 q -0.411493,0 -0.708043,-0.140229 -0.296551,-0.140229 -0.45747,-0.402297 -0.160919,-0.262069 -0.160919,-0.622987 h 0.510343 q 0.0023,0.225287 0.09885,0.388505 0.09655,0.160919 0.27816,0.245976 0.183908,0.08506 0.439079,0.08506 0.234482,0 0.404597,-0.06667 0.172413,-0.06667 0.268964,-0.188506 0.09655,-0.124137 0.09655,-0.291953 0,-0.131034 -0.06667,-0.227585 -0.06437,-0.09885 -0.209195,-0.172413 -0.142528,-0.07356 -0.381607,-0.128736 l -0.374712,-0.08965 q -0.519533,-0.121842 -0.758613,-0.34483 -0.236781,-0.222988 -0.236781,-0.579308 0,-0.301149 0.151724,-0.524136 0.151723,-0.225287 0.427585,-0.349425 0.275861,-0.126436 0.641377,-0.126436 0.370113,0 0.641377,0.131034 0.271263,0.131034 0.420688,0.372413 0.151724,0.241378 0.163218,0.577009 h -0.494251 q -0.01839,-0.29655 -0.216091,-0.464366 -0.197701,-0.170114 -0.521838,-0.170114 -0.204597,0 -0.365516,0.06897 -0.15862,0.06667 -0.250574,0.186206 -0.08966,0.117241 -0.08966,0.273562 0,0.124138 0.06667,0.216092 0.06667,0.09195 0.209195,0.160919 0.144827,0.06897 0.379309,0.126436 l 0.370113,0.08736 q 0.257471,0.06207 0.445976,0.149425 0.190804,0.08736 0.312643,0.204597 0.124137,0.114942 0.183907,0.264367 0.06207,0.147126 0.06207,0.331033 0,0.308045 -0.15862,0.537929 -0.158621,0.229885 -0.445976,0.356321 -0.287355,0.126436 -0.67586,0.126436 z m 1.540583,-3.032173 v -0.448275 h 2.691945 v 0.448275 h -1.087353 v 2.977001 h -0.512642 v -2.977001 z m 3.165406,2.977001 v -3.425276 h 1.303444 q 0.367815,0 0.634481,0.131034 0.268964,0.128736 0.413791,0.367815 0.144828,0.23908 0.144828,0.567814 0,0.326436 -0.154023,0.565516 -0.154022,0.239079 -0.429884,0.367815 -0.275861,0.128735 -0.643676,0.128735 h -0.974709 v -0.434481 h 0.988503 q 0.220688,0 0.379309,-0.07586 0.160919,-0.07586 0.245976,-0.216091 0.08506,-0.142529 0.08506,-0.335632 0,-0.193102 -0.08736,-0.331033 -0.08506,-0.140229 -0.245976,-0.216091 -0.15862,-0.07816 -0.379309,-0.07816 h -0.770113 v 2.983898 z m 1.974706,0 -0.811491,-1.542523 h 0.558619 l 0.827583,1.542523 z m 1.590699,-3.425276 v 3.425276 h -0.510343 v -3.425276 z m 1.783803,3.425276 h -0.843676 v -0.443676 h 0.811492 q 0.399998,0 0.659768,-0.151724 0.259769,-0.151724 0.388504,-0.43678 0.128735,-0.287356 0.128735,-0.685055 0,-0.3977 -0.126436,-0.680458 -0.126436,-0.282758 -0.381608,-0.432182 -0.252873,-0.151724 -0.634481,-0.151724 h -0.864364 v -0.443677 h 0.896548 q 0.503447,0 0.866664,0.206896 0.365516,0.204597 0.560918,0.588504 0.195401,0.381608 0.195401,0.912641 0,0.531032 -0.1977,0.917238 -0.195402,0.383907 -0.565515,0.593101 -0.370114,0.206896 -0.89425,0.206896 z m -0.5977,-3.425276 v 3.425276 H 43.80079 v -3.425276 z m 2.804488,3.425276 v -3.425276 h 2.303441 v 0.448275 h -1.793098 v 1.009192 h 1.659765 v 0.443676 h -1.659765 v 1.075859 h 1.793098 v 0.448274 z"
       id="text1"
       style="font-size:4.70803px;font-family:Inter;-inkscape-font-specification:'Inter, @opsz=32,wght=500';font-variation-settings:'opsz' 32, 'wght' 500;letter-spacing:0.0504743px;display:none;fill:#1e293b;stroke-width:0.055259"
       transform="scale(1.1194592,0.89328846)"
       aria-label="CLEARSTRIDE" /></g></svg>
